# xmcd
#
# Track frame offsets: 
#        150
#        10841
#        24399
#        45914
#        61325
#        77450
#        96508
#        114348
#        127892
#        154752
#
# Disc length: 2363 seconds
#
# Revision: 0
# Processed by: cddbd v1.5.2PL0 Copyright (c) Steve Scherf et al.
# Submitted via: ExactAudioCopy v0.99pb3
#
DISCID=6909390a
DTITLE=Günther Wölfle - I Möcht so gern a Rockstar sei
DYEAR=1978
DGENRE=Blues
TTITLE0=I Möcht so gern a Rockstar sei
TTITLE1=Der Erlkönig
TTITLE2=Schwobakarle
TTITLE3=Skat - Blues
TTITLE4=Isch es dann soweit
TTITLE5=Spielautomaten - Blues
TTITLE6=Käsblättle
TTITLE7=Lied vom warta
TTITLE8=Fragelied
TTITLE9=Wieder mol ischs achte
EXTD=
EXTT0=
EXTT1=
EXTT2=
EXTT3=
EXTT4=
EXTT5=
EXTT6=
EXTT7=
EXTT8=
EXTT9=
PLAYORDER=
